<svg width="108" height="28" viewBox="0 0 108 28" fill="none" xmlns="http://www.w3.org/2000/svg"><path fill-rule="evenodd" clip-rule="evenodd" d="M1.39668 27.9999C1.36346 27.9584 0.0427469 26.4375 0.00952148 26.3959C4.08794 19.1736 8.14975 11.9513 12.2282 4.72893C12.1949 4.67906 12.1368 4.67075 12.0953 4.64582C11.1068 4.17209 10.1184 3.69004 9.1299 3.21631C8.94716 3.12489 8.75611 3.03347 8.57337 2.95036C8.52353 2.92542 8.482 2.90049 8.44047 2.85894C8.03346 2.39352 7.12807 1.36294 7.12807 1.36294C7.12807 1.36294 7.26097 1.4045 7.29419 1.4045C7.80919 1.39619 8.32418 1.39619 8.83918 1.38788C11.0902 1.37126 13.3412 1.35463 15.5839 1.33801C16.7219 1.3297 17.8599 1.32139 18.9978 1.31308C19.164 1.31308 19.1224 1.29645 19.2304 1.41281C19.6291 1.8533 20.0361 2.29378 20.4348 2.72596C20.4681 2.7592 20.493 2.79245 20.5262 2.834C20.1358 5.14448 19.7454 7.46327 19.3467 9.78206C18.9563 12.1009 18.5576 14.4279 18.1672 16.7467C17.7768 19.0655 17.3864 21.376 16.996 23.7031C15.4676 24.0771 13.9559 24.4428 12.4441 24.8085C12.4275 24.8085 12.4275 24.8085 12.4192 24.8002C12.4109 24.8002 12.4109 24.8002 12.4026 24.7919C11.9458 24.2932 11.0154 23.246 10.9988 23.2211C11.7464 22.1988 12.4857 21.1932 13.2166 20.1543C13.1834 20.1626 13.1502 20.1709 13.1169 20.1792C11.9374 20.5283 10.7579 20.8773 9.57844 21.2181C9.55352 21.2264 9.53691 21.2264 9.51199 21.243C9.48707 21.2597 9.47046 21.2763 9.45385 21.2929C9.43723 21.3178 9.42062 21.3594 9.40401 21.3926C8.63152 23.0465 7.85903 24.7004 7.09484 26.3543C7.02839 26.4956 7.02839 26.4956 6.87888 26.5289C5.15115 26.9943 1.40499 27.9999 1.39668 27.9999ZM15.4676 7.77078C15.3763 7.91207 11.2979 16.4559 11.0237 17.0792C11.0154 17.0958 11.0071 17.1207 10.9988 17.154C11.0321 17.154 11.0653 17.154 11.0902 17.1457C11.1566 17.129 11.2231 17.1124 11.2895 17.0958C12.062 16.9296 12.8345 16.7634 13.607 16.5971C13.6402 16.5888 13.6652 16.5722 13.6984 16.5639C14.2881 13.655 14.8779 10.7378 15.4676 7.82896C15.4676 7.82065 15.4676 7.81234 15.4676 7.77078Z" fill="black"/><path fill-rule="evenodd" clip-rule="evenodd" d="M40.0626 20.1128C39.3898 20.1959 38.7004 20.279 38.0193 20.3621C37.986 20.3289 37.9611 20.3039 37.9445 20.279C37.5292 19.8136 36.5407 18.7082 36.5407 18.7082C36.5407 18.7082 36.6072 18.6833 36.6155 18.6334C36.6653 18.4173 36.7401 18.2926 36.7899 18.0766C36.8979 17.5779 36.981 17.0709 37.0474 16.5639C37.1139 16.0819 37.1554 15.5915 37.1637 15.1012C37.172 14.7771 37.1554 14.4529 37.1222 14.1288C37.1222 14.1122 37.1139 14.1039 37.1139 14.0872C37.0806 14.0789 37.0806 14.1039 37.0723 14.1288C36.9643 14.4696 36.8564 14.8186 36.7484 15.1594C36.1835 16.9795 35.627 18.7913 35.0705 20.6114C35.0539 20.6613 35.0373 20.7029 35.0207 20.761C34.4392 20.8441 33.8495 20.9273 33.268 21.0104C32.6866 21.0935 32.1051 21.1849 31.5154 21.268C31.0336 20.761 30.5352 20.1128 30.0618 19.6058C30.0784 19.5393 30.1365 19.6141 30.1614 19.5642C31.1001 17.8438 32.0055 16.1401 32.8776 14.3864C33.5421 13.0567 34.1817 11.7186 34.7715 10.3556C35.1203 9.55771 35.4443 8.75153 35.7184 7.92874C35.7267 7.9038 35.735 7.87887 35.7516 7.85394C35.7765 7.85394 35.8015 7.84563 35.8181 7.84563C36.0507 7.82069 36.2666 7.74589 36.4743 7.64616C36.7567 7.51318 37.0142 7.33865 37.2634 7.1475C37.5956 6.88985 38.1355 6.20834 38.1771 6.1751C38.2103 6.20834 39.5808 7.70434 39.5808 7.70434C39.5808 7.70434 39.6722 7.83732 39.6805 7.92043C39.7054 8.23625 39.747 8.54376 39.7802 8.85958C39.8217 9.23358 39.8633 9.60757 39.9048 9.97326C39.938 10.2558 39.9629 10.5467 39.9962 10.8293C40.0294 11.1202 40.0626 11.4111 40.0958 11.702C40.1291 11.9845 40.154 12.2671 40.1872 12.5497C40.2204 12.8406 40.2537 13.1315 40.2869 13.4224C40.3035 13.547 40.3118 13.6717 40.3284 13.788C40.3367 13.8462 40.345 13.9127 40.3533 13.9792C40.4032 13.9626 40.4115 13.9293 40.4198 13.8961C40.6524 13.4556 40.8849 13.0151 41.1175 12.5746C41.9482 11.0038 42.8037 9.44135 43.6759 7.89549C43.7008 7.85394 43.7257 7.82069 43.7423 7.77914C43.7672 7.77083 43.7922 7.77083 43.8088 7.77083C44.0746 7.7542 44.3155 7.67941 44.5647 7.57967C44.8305 7.47163 45.0797 7.33865 45.3205 7.18905C45.7608 6.9231 46.5582 6.13354 46.5582 6.13354C46.5582 6.13354 47.5716 7.21398 47.9869 7.68772C48.0367 7.74589 48.0533 7.79576 48.0533 7.87056C48.0284 8.21131 48.0118 8.55207 47.9869 8.90113C47.9786 9.07566 47.962 9.2502 47.9537 9.42473C47.9204 9.91508 47.8955 10.4054 47.8623 10.8875C47.8291 11.3612 47.7958 11.8349 47.7626 12.3087C47.7377 12.6494 47.7211 12.9902 47.6962 13.3392C47.6712 13.68 47.6463 14.0208 47.6297 14.3615C47.6214 14.5194 47.6048 14.669 47.5965 14.8269C47.5716 15.2508 47.5383 15.6663 47.5134 16.0902C47.5134 16.1484 47.5134 16.2066 47.5134 16.2647C47.5549 16.2647 47.5549 16.2315 47.5716 16.2066C47.7543 15.8159 47.9453 15.417 48.1281 15.0264C48.7511 13.6883 49.3408 12.3336 49.8807 10.9623C50.2047 10.1395 50.512 9.31669 50.7529 8.46065C50.811 8.26949 50.8526 8.07834 50.9107 7.89549C50.919 7.86225 50.9356 7.82901 50.9439 7.79576C51.0519 7.77914 51.1599 7.77083 51.2596 7.74589C51.5088 7.69603 51.7413 7.60461 51.9656 7.49656C52.3892 7.28878 52.788 7.03945 53.1617 6.75688C53.3528 6.61559 53.7349 6.19172 53.7349 6.19172C53.7349 6.19172 54.7649 7.26385 55.1968 7.77083C55.2134 7.78745 55.2217 7.80407 55.2383 7.829C54.4908 10.929 53.7432 14.0374 53.0205 17.154C53.0454 17.1125 53.0704 17.0709 53.0953 17.0294C53.4026 16.431 53.71 15.8326 54.0007 15.2342C54.6901 13.8379 55.3463 12.4333 55.9444 10.9955C56.2683 10.2226 56.5673 9.44135 56.8165 8.64349C56.8913 8.41078 56.9577 8.16976 57.0242 7.93705C57.0325 7.91211 57.0408 7.89549 57.0491 7.86225C57.074 7.86225 57.1073 7.85394 57.1322 7.85394C57.6804 7.84563 58.2286 7.81238 58.7768 7.75421C59.3417 7.70434 59.9065 7.63785 60.463 7.56305C61.0112 7.48825 61.5678 7.41345 62.116 7.33034C62.5978 7.25554 61.9416 6.65714 62.4233 6.58234C62.4815 6.57403 64.6328 7.29709 65.6545 8.93438C65.8538 9.25851 66.0864 9.55771 66.2193 9.91508C66.2526 9.99819 66.2775 10.0896 66.3107 10.1727C66.4021 10.447 66.3938 10.7296 66.3356 11.0121C66.2359 11.5773 65.9701 12.051 65.5714 12.4583C65.2558 12.7824 64.8903 13.0484 64.4916 13.2644C63.9683 13.5553 63.4118 13.7548 62.8303 13.8961C62.6974 13.9293 62.5645 13.9543 62.4316 13.9875C62.415 14.0291 62.4565 14.054 62.4732 14.0789C62.6974 14.3615 62.9134 14.6441 63.1377 14.9183C63.9434 15.9074 64.7408 16.8881 65.5465 17.8771C65.5714 17.9103 65.6047 17.9519 65.6296 17.9768C65.613 18.0184 65.588 18.0101 65.5714 18.0101C65.0564 18.0433 64.5414 18.0682 64.0264 18.1015C63.6527 18.1264 63.2789 18.1514 62.9051 18.168C62.5728 18.1846 62.2489 18.2095 61.9166 18.2262C61.9 18.2262 61.8917 18.2262 61.8668 18.2262C61.8336 18.1929 61.8003 18.1597 61.7671 18.1264C61.3518 17.6859 60.4132 16.6637 60.3883 16.5723C60.1806 15.9489 59.9314 15.3339 59.649 14.7438C59.6324 14.7023 59.6158 14.669 59.5909 14.6358C59.5909 14.6275 59.5825 14.6192 59.5659 14.6108C59.242 14.6025 58.918 14.5942 58.5775 14.5942C58.5609 14.6441 58.5526 14.6856 58.5359 14.7355C58.2535 15.9572 57.9711 17.1873 57.6804 18.409C57.6721 18.4506 57.6555 18.4838 57.6472 18.5337C56.559 18.6168 55.4709 18.6999 54.3745 18.7913C53.9176 18.276 53.4608 17.769 53.0039 17.2621C52.9624 17.2704 52.9624 17.2953 52.9541 17.3119C52.8378 17.8106 52.7215 18.3093 52.5969 18.8079C52.5886 18.8412 52.5803 18.8827 52.572 18.9077C52.5637 18.916 52.5554 18.916 52.5554 18.9243C52.5554 18.9243 52.5471 18.9326 52.5388 18.9326C51.1267 19.049 49.7146 19.1653 48.2942 19.29C47.9869 18.9575 47.6878 18.6168 47.3722 18.2677C47.3473 18.3425 47.3556 18.4007 47.3473 18.4589C47.339 18.5254 47.339 18.5835 47.3307 18.65C47.3307 18.7082 47.3224 18.7664 47.3224 18.8246C47.3224 18.8827 47.3141 18.9409 47.3058 19.0074C47.2975 19.0739 47.2974 19.1321 47.2974 19.1986C47.2891 19.2567 47.2974 19.3149 47.2725 19.3814C46.9486 19.423 46.608 19.4479 46.2841 19.4811C45.9518 19.5144 45.6196 19.5476 45.2873 19.5809C44.9551 19.6141 44.6228 19.6474 44.2906 19.6806C43.9583 19.7138 43.626 19.7471 43.3021 19.7803C43.2938 19.7803 43.2855 19.7803 43.2855 19.772C43.2855 19.772 43.2772 19.772 43.2772 19.7637C43.2523 19.7388 43.2273 19.7138 43.2024 19.6889C42.7622 19.1986 42.2472 18.6251 41.807 18.1264C41.8319 18.0849 41.9232 18.1264 41.9482 18.0932C42.405 17.3202 42.8203 16.5307 43.1775 15.7079C43.3685 15.2591 43.5513 14.8103 43.6676 14.3449C43.7174 14.162 43.7506 13.9792 43.7839 13.7964C43.7922 13.7631 43.7839 13.7382 43.7839 13.7049C43.7756 13.7049 43.7672 13.7049 43.7672 13.7049L43.7589 13.7132C43.7506 13.7216 43.7506 13.7299 43.7423 13.7382C43.734 13.7465 43.7257 13.7631 43.7174 13.7714C43.3602 14.3781 43.0031 14.9765 42.6542 15.5832C41.7737 17.0875 40.9265 18.6085 40.0875 20.1294C40.0709 20.0961 40.0709 20.0961 40.0626 20.1128ZM58.7104 12.6162C58.7353 12.6162 58.7519 12.6245 58.7768 12.6245C59.3084 12.6411 59.8317 12.5996 60.3467 12.4583C60.679 12.3668 60.9946 12.2339 61.277 12.0344C61.5678 11.8183 61.7837 11.5357 61.8917 11.1867C61.9 11.1534 61.9166 11.1285 61.9249 11.0953C61.9748 11.0953 62.0163 11.0869 62.0662 11.0869C62.1658 11.0953 62.2655 11.1036 62.3652 11.1119C62.415 11.1119 62.4649 11.1285 62.5147 11.0869C62.5147 11.062 62.5147 11.0288 62.5147 10.9955C62.5147 10.9623 62.5064 10.9207 62.4981 10.8875C62.4565 10.7213 62.3569 10.5966 62.2157 10.4969C62.0828 10.3971 61.9249 10.3389 61.7671 10.2974C61.4847 10.2226 61.194 10.1893 60.9033 10.1893C60.38 10.181 59.8484 10.1893 59.3251 10.1893C59.2918 10.1893 59.2669 10.1977 59.2254 10.1977C59.0509 10.9955 58.8682 11.7768 58.6938 12.5663C58.7021 12.5829 58.7021 12.5996 58.7104 12.6162Z" fill="black"/><path fill-rule="evenodd" clip-rule="evenodd" d="M93.1985 19.4977C90.8644 21.0768 88.4722 22.5561 86.0301 23.9524C83.5963 25.3486 81.121 26.6701 78.5876 27.8835C78.5627 27.8586 78.5378 27.842 78.5128 27.817C78.1058 27.3433 77.2337 26.2961 77.2087 26.2629C77.2586 26.2296 79.8003 24.6339 81.0131 23.8194C83.2973 22.2902 85.5649 20.7443 87.7993 19.1403C88.8293 18.4006 89.851 17.6526 90.8561 16.8797C90.9142 16.8381 90.9641 16.7966 91.0222 16.755C91.0139 16.7301 91.0056 16.7134 90.9973 16.6885C90.3494 15.5915 89.8842 14.4196 89.5188 13.1979C89.2779 12.4166 89.1034 11.6271 88.9788 10.8209C88.8958 10.2807 88.8376 9.74045 88.8044 9.20023C88.7629 8.54366 88.7546 7.88708 88.7878 7.2222C88.8626 5.82594 89.0785 4.45461 89.4938 3.12484C89.552 2.942 89.6018 2.45995 89.6184 2.4184C89.6683 2.41009 90.2996 3.0916 90.5404 3.37417C90.6983 3.55702 90.8478 3.73155 91.0056 3.91439C91.0471 3.96426 91.072 4.01412 91.0803 4.0723C91.1385 4.54603 91.2548 5.01145 91.3711 5.46856C91.6618 6.549 92.0273 7.60451 92.4426 8.6517C93.0407 10.1643 93.7301 11.6437 94.4693 13.0898C94.5358 13.2145 94.5939 13.3308 94.6604 13.4555C94.677 13.4804 94.6936 13.5054 94.7102 13.5386C94.7601 13.5137 94.7933 13.4721 94.8265 13.4389C95.4329 12.7989 96.0143 12.1257 96.5542 11.4359C97.6091 10.0978 98.5478 8.69326 99.4033 7.2222C100.616 5.15274 101.663 3.00848 102.535 0.781117C102.601 0.623207 102.659 0.456985 102.718 0.290763C102.734 0.257519 102.634 0.141165 102.651 0.0996094C102.684 0.124543 103.648 1.17174 104.055 1.63716C104.13 1.72027 104.188 1.82 104.254 1.91973C104.528 2.36853 104.728 2.85888 104.861 3.36586C105.027 3.98919 105.101 4.62914 105.085 5.27741C105.068 6.08358 104.919 6.86482 104.67 7.62944C104.404 8.45224 104.038 9.22517 103.598 9.96485C103.1 10.8126 102.518 11.5938 101.879 12.3418C101.106 13.2477 100.259 14.0788 99.3701 14.8684C98.6641 15.4917 97.9414 16.0818 97.1938 16.647C97.1689 16.6719 97.1357 16.6885 97.1108 16.7134C97.1025 16.7218 97.1025 16.7301 97.0942 16.7467C97.1108 16.7882 97.1523 16.8215 97.1855 16.8547C97.6507 17.3617 98.1407 17.8521 98.6391 18.3258C99.9848 19.6057 101.422 20.7776 102.917 21.8912C104.071 22.7556 105.251 23.5701 106.472 24.343C106.514 24.3679 106.555 24.4012 106.588 24.4344C107.037 24.9165 107.485 25.3985 107.934 25.8806C107.951 25.9055 107.975 25.9304 108 25.9637C107.967 25.9637 107.951 25.972 107.934 25.9637C107.278 25.8722 106.638 25.7559 105.99 25.6229C105.002 25.4151 104.022 25.1658 103.058 24.8749C101.364 24.3596 99.719 23.728 98.1324 22.9301C96.9696 22.34 95.8565 21.6585 94.8182 20.8607C94.2783 20.4534 93.7633 20.0129 93.2815 19.5392C93.2483 19.5392 93.2317 19.5226 93.1985 19.4977Z" fill="black"/><path fill-rule="evenodd" clip-rule="evenodd" d="M84.8175 7.69591C83.9952 10.1477 83.1812 12.5994 82.3588 15.0346C82.3921 15.0761 82.417 15.0512 82.4419 15.0429C82.9237 14.8684 83.4054 14.7021 83.8872 14.5359C84.776 14.2201 85.6731 13.9043 86.5619 13.5885C86.6034 13.5718 86.7031 13.5802 86.7031 13.5802C86.7031 13.5802 87.6002 14.5775 88.0321 15.0678C88.0736 15.1177 88.0902 15.1593 88.0653 15.2257C87.8078 15.9488 87.5503 16.6802 87.2845 17.4116C87.2679 17.4531 87.2513 17.4864 87.2347 17.5279C87.1765 17.5279 87.1267 17.5279 87.0685 17.5279C85.0999 17.4864 83.1396 17.4947 81.171 17.5113C80.0497 17.5196 78.9283 17.5445 77.807 17.5612C77.6907 17.5612 77.5827 17.5695 77.4664 17.5695C77.4166 17.5695 77.375 17.5528 77.3501 17.5196C77.3086 17.4697 77.2671 17.4199 77.2255 17.3783C76.885 16.9877 76.5444 16.5971 76.2121 16.2065C76.1789 16.1732 76.154 16.14 76.1208 16.1067C76.0792 16.1233 76.0875 16.1483 76.0875 16.1732C76.0709 16.6137 76.046 17.0625 76.0294 17.503C76.0294 17.5612 76.0294 17.611 76.0128 17.6692C75.9796 17.6692 75.9463 17.6775 75.9214 17.6775C74.9413 17.6775 73.9528 17.6775 72.9727 17.6775C72.8979 17.6775 72.8481 17.6526 72.7982 17.5944C72.3829 17.1456 71.544 16.1233 71.5191 16.0984C71.6353 16.0485 71.735 16.115 71.843 16.0901C71.9593 16.0652 72.0756 16.0402 72.1919 16.0153C72.3082 15.9904 72.4244 15.9737 72.5407 15.9405C72.657 15.9156 72.7733 15.8989 72.8896 15.874C72.873 15.8325 72.8398 15.8491 72.8148 15.8491C72.5241 15.8491 72.2251 15.8574 71.9344 15.8574C71.4526 15.8657 70.9625 15.874 70.4808 15.8823C70.4309 15.8823 70.3894 15.8823 70.3396 15.8823C70.3146 15.9239 70.2897 15.9737 70.2648 16.0153C69.999 16.5472 69.7332 17.0791 69.4674 17.611C69.4425 17.6609 69.4175 17.7024 69.3926 17.7523C68.238 17.7856 67.0752 17.8105 65.9206 17.8354C65.4637 17.3035 65.0401 16.7882 64.5916 16.2563C65.4886 15.1011 66.3525 13.9542 67.2496 12.8072C68.1467 11.6603 69.0355 10.5134 69.9325 9.36644C69.8993 9.31657 69.8495 9.29164 69.8079 9.26671C69.0936 8.76804 68.3793 8.27769 67.6649 7.78734C67.5652 7.71254 67.4739 7.63774 67.3908 7.54632C67.017 7.11414 66.2279 6.1833 66.203 6.14174C66.2113 6.12512 66.2113 6.12512 66.2113 6.12512C66.2113 6.12512 66.2694 6.15837 66.2777 6.15837C66.3027 6.15837 66.2944 6.15837 66.3193 6.15837C69.2431 6.15837 72.1503 6.14174 75.0825 6.14174C75.1157 6.17499 75.1323 6.19161 75.1572 6.22485C75.5642 6.68196 75.9713 7.13907 76.3783 7.59618C76.4364 7.66267 76.4613 7.72085 76.453 7.80396C76.4364 8.14471 76.4198 8.47716 76.4032 8.81791C76.3949 9.05062 76.3783 9.28333 76.37 9.51604C76.345 10.0563 76.3284 10.5965 76.3035 11.1367C76.2786 11.652 76.2537 12.159 76.2371 12.6742C76.2288 12.9236 76.2121 13.1646 76.2038 13.4139C76.1789 13.9542 76.1623 14.4944 76.1374 15.0346C76.1291 15.2507 76.1208 15.4668 76.1125 15.6829C76.1125 15.7161 76.1125 15.741 76.1125 15.7743C76.1623 15.7826 76.1623 15.7493 76.1789 15.7244C76.2786 15.5333 76.3783 15.3421 76.4863 15.1593C77.782 12.7241 79.0778 10.2807 80.3819 7.84551C80.3985 7.81227 80.4152 7.77903 80.4318 7.74578C80.4484 7.71254 80.4733 7.6876 80.5065 7.67098C80.5314 7.65436 80.5647 7.63774 80.5896 7.62943C81.5033 7.14738 82.417 6.67365 83.339 6.19161C83.3805 6.17499 83.4221 6.15005 83.4553 6.13343C83.5217 6.19161 84.7179 7.56294 84.8175 7.69591ZM72.1669 13.2394C72.1005 13.6134 72.0174 13.9791 71.9427 14.3448C71.8679 14.7188 71.7932 15.0845 71.7184 15.4834C71.7765 15.4335 71.8015 15.392 71.8264 15.3504C72.2999 14.5941 72.7816 13.8461 73.2634 13.0898C73.4378 12.8155 73.6123 12.533 73.795 12.2587C73.8116 12.2338 73.8199 12.2005 73.8365 12.159C73.7368 12.1673 73.6455 12.1673 73.5624 12.1756C73.2966 12.1922 73.0308 12.2088 72.765 12.2171C72.7401 12.2171 72.7069 12.2088 72.6736 12.2088C72.6986 12.0675 72.7235 11.9262 72.7484 11.7933C72.7733 11.6603 72.7982 11.5356 72.8232 11.4027C72.8481 11.2697 72.873 11.1367 72.8979 10.9954C72.9228 10.8624 72.9477 10.7295 72.9644 10.5882C72.9893 10.4552 73.0142 10.3305 73.0391 10.1975C73.0557 10.0646 73.0973 9.9399 73.0973 9.77368C73.0723 9.80693 73.0557 9.82355 73.0474 9.83186C72.3414 10.9954 71.6436 12.1673 70.9376 13.3308C70.9376 13.3391 70.9376 13.3474 70.9376 13.3641C71.0705 13.3641 71.2034 13.3391 71.3446 13.3225C71.4858 13.3059 71.627 13.2893 71.7682 13.2726C71.8845 13.2643 72.0174 13.2311 72.1669 13.2394Z" fill="black"/><path fill-rule="evenodd" clip-rule="evenodd" d="M21.9799 7.77081C22.0298 7.7625 22.063 7.7625 22.0962 7.7625C22.4036 7.74587 22.7109 7.73756 23.0099 7.72094C23.4502 7.70432 23.8904 7.69601 24.3223 7.67939C25.0118 7.65445 25.7012 7.65445 26.3906 7.65445C26.8059 7.65445 27.2212 7.67108 27.6366 7.70432C27.9356 7.72925 28.218 7.67939 28.4921 7.56303C28.5918 7.52148 28.6832 7.47161 28.7828 7.43005C28.8493 7.40512 28.0685 6.65713 28.1349 6.6405C28.5835 6.65713 29.5969 7.48823 29.6799 7.54641C30.0786 7.85392 30.4192 8.2113 30.7182 8.61854C30.8179 8.74321 30.9093 8.87618 30.9923 9.00916C31.1335 9.21693 31.2831 9.43302 31.4243 9.6408C31.7731 10.1478 32.0057 10.7046 32.1386 11.303C32.2632 11.8432 32.3047 12.3918 32.2798 12.9403C32.2134 14.802 31.6818 16.5224 30.7016 18.1015C30.1202 19.0323 29.4141 19.8551 28.5752 20.5616C27.8941 21.135 27.1465 21.6004 26.3159 21.9163C25.8922 22.0742 25.4686 22.1905 25.0201 22.2653C24.3971 22.3651 23.7741 22.4648 23.1511 22.5645C22.5365 22.6643 21.9135 22.7557 21.2988 22.8554C20.842 22.9302 20.3851 23.005 19.9366 23.0798C19.812 23.0964 19.6874 23.1214 19.5628 23.1463C19.5296 23.1546 19.4963 23.1546 19.4631 23.1629C19.0063 22.6393 18.4996 22.1157 18.0427 21.5838C19.3468 16.9878 20.6841 12.3835 21.9799 7.77081ZM23.6412 18.891C23.6827 18.8827 23.7077 18.8744 23.7243 18.8744C23.9402 18.8079 24.1645 18.7497 24.3805 18.6833C24.5798 18.6334 24.7792 18.5752 24.9785 18.5336C25.2028 18.4921 25.4271 18.4339 25.6347 18.3508C26.158 18.143 26.59 17.8023 26.9554 17.3784C27.3375 16.9379 27.6116 16.4309 27.8027 15.8824C28.0103 15.3006 28.1433 14.6939 28.1931 14.0789C28.2263 13.7215 28.218 13.3725 28.1599 13.0234C28.1183 12.7658 28.0353 12.5247 27.9107 12.3003C27.703 11.9347 27.3957 11.6853 26.997 11.5607C26.7395 11.4775 26.4737 11.4609 26.2079 11.4775C25.8009 11.5025 25.3938 11.5274 24.9868 11.5607C24.9121 11.569 24.829 11.5607 24.7543 11.5939C24.3472 13.9875 23.9901 16.3894 23.6329 18.783C23.6412 18.8162 23.6412 18.8495 23.6412 18.891Z" fill="black"/><path d="M10.8074 3.14162C10.6579 3.06682 10.525 3.00864 10.392 2.94215C10.2591 2.87566 10.1179 2.80917 9.98504 2.74268C9.85214 2.6762 9.71093 2.60971 9.57803 2.54322C9.44512 2.47673 9.30392 2.41024 9.17102 2.34375C9.03811 2.27726 8.8969 2.21078 8.764 2.14429C8.6311 2.0778 8.48989 2.01131 8.35699 1.94482C8.22409 1.87833 8.08288 1.81184 7.94998 1.74536C7.81708 1.67887 7.67587 1.62069 7.54297 1.54589C7.41007 1.4794 7.26886 1.42953 7.14426 1.33811C7.1941 1.30487 7.24394 1.31318 7.28547 1.31318C7.70079 1.31318 8.11611 1.30487 8.53143 1.30487C11.0566 1.28825 13.59 1.27162 16.1151 1.26331C17.0621 1.255 18.0173 1.255 18.9642 1.24669C19.014 1.24669 19.0639 1.23838 19.122 1.26331C17.9508 8.21137 16.7713 15.1594 15.6001 22.0992C15.5835 22.1075 15.5752 22.1241 15.5586 22.1241C14.0801 22.4815 12.5932 22.8472 11.1147 23.2045C11.0981 23.2129 11.0732 23.2129 11.0399 23.2129C11.0483 23.0716 11.0815 22.9469 11.0981 22.8222C11.1147 22.6976 11.1396 22.5729 11.1645 22.4399C11.1895 22.3069 11.2144 22.1823 11.2393 22.0493C11.2642 21.9246 11.2808 21.8 11.3057 21.6753C11.3307 21.5423 11.3556 21.4094 11.3805 21.2847C11.4054 21.1517 11.422 21.027 11.447 20.8941C11.4719 20.7694 11.4968 20.6447 11.5217 20.5201C11.5466 20.3871 11.5632 20.2541 11.5882 20.1294C11.6131 20.0048 11.638 19.8801 11.6546 19.7471C11.6795 19.6142 11.6961 19.4895 11.7211 19.3565C11.746 19.2319 11.7709 19.1072 11.7875 18.9742C11.8124 18.8495 11.8457 18.7166 11.854 18.5919C11.8207 18.5587 11.7958 18.5753 11.7709 18.5836C11.2144 18.7498 10.6662 18.9077 10.1179 19.0739C9.47835 19.2651 8.83876 19.4563 8.19917 19.6391C8.15764 19.6474 8.12441 19.664 8.07458 19.6807C7.26055 21.4177 6.44653 23.163 5.63251 24.9083C5.00953 25.0828 4.38655 25.2408 3.75527 25.407C3.1323 25.5732 2.50932 25.7311 1.88634 25.8973C1.26337 26.0636 0.632083 26.2215 0.00910698 26.3877C-0.0158121 26.3378 0.0174131 26.3129 0.0257194 26.2796C0.249991 25.7976 0.474262 25.3072 0.70684 24.8252C3.51439 18.7914 6.32194 12.7658 9.12948 6.74031C9.6694 5.58507 10.201 4.43814 10.7409 3.2829C10.7575 3.24135 10.7824 3.19979 10.8074 3.14162ZM14.0385 6.21671C14.0302 6.21671 14.0219 6.21671 14.0136 6.2084C13.9887 6.24996 13.9721 6.29982 13.9472 6.34138C12.7261 8.9095 11.5051 11.4859 10.2758 14.0541C10.0515 14.5278 9.82722 14.9932 9.60295 15.4669C9.58633 15.5002 9.56141 15.5334 9.56972 15.5916C10.4668 15.3921 11.3556 15.201 12.2527 15.0098C12.8424 12.101 13.4322 9.19208 14.0219 6.29151C14.0385 6.25827 14.0385 6.24165 14.0385 6.21671Z" fill="#FFD800"/><path d="M102.642 0.0997314C102.701 0.149598 102.734 0.199463 102.759 0.24933C102.975 0.581773 103.141 0.947461 103.282 1.32146C103.456 1.81181 103.564 2.31048 103.623 2.82576C103.681 3.3826 103.664 3.93114 103.598 4.47967C103.481 5.41882 103.199 6.31641 102.8 7.18076C102.41 8.04512 101.911 8.85129 101.355 9.61591C100.749 10.447 100.076 11.2199 99.3531 11.9513C98.4145 12.9071 97.4094 13.7798 96.3545 14.6109C96.1136 14.7937 95.8728 14.9766 95.6402 15.1594C95.607 15.1843 95.5737 15.2093 95.5405 15.2425C95.582 15.2924 95.6236 15.3339 95.6568 15.3838C96.3961 16.2481 97.1769 17.0709 97.9992 17.8522C99.3033 19.0988 100.69 20.2624 102.127 21.3595C103.515 22.415 104.943 23.4123 106.422 24.3348C106.447 24.3514 106.472 24.3681 106.497 24.3847C106.48 24.4179 106.455 24.4096 106.43 24.4096C106.414 24.4096 106.397 24.4096 106.372 24.4013C106.181 24.3764 105.99 24.3431 105.799 24.3182C105.126 24.2018 104.462 24.0689 103.797 23.9193C101.579 23.404 99.4279 22.6892 97.3679 21.7251C96.1718 21.16 95.0255 20.5117 93.9374 19.7471C93.1898 19.2152 92.4838 18.6417 91.8276 18.0018C91.8026 17.9768 91.7777 17.9602 91.7528 17.9353C90.972 18.4506 90.1912 18.9659 89.4021 19.4645C88.613 19.9632 87.8239 20.4619 87.0265 20.9439C86.2291 21.4259 85.4234 21.8997 84.6177 22.3651C83.8119 22.8305 82.9979 23.2876 82.1756 23.7281C81.3533 24.1686 80.5309 24.6091 79.7086 25.0329C78.3879 25.7145 77.3911 26.1965 77.1835 26.2713C77.2915 26.1466 77.4077 26.0552 77.524 25.9555C77.632 25.8557 77.74 25.7643 77.848 25.6646C77.956 25.5649 78.0723 25.4651 78.1802 25.3654C78.2965 25.2657 78.4045 25.1659 78.5208 25.0662C78.6371 24.9665 78.7451 24.8667 78.8614 24.767C78.9693 24.6673 79.0773 24.5758 79.1853 24.4761C79.3016 24.3764 79.4096 24.2766 79.5259 24.1686C79.6421 24.0689 79.7501 23.9691 79.8664 23.8694C79.9744 23.7697 80.0824 23.6782 80.1904 23.5785C80.3067 23.4788 80.4146 23.379 80.5309 23.2793C80.6472 23.1796 80.7552 23.0798 80.8715 22.9801C80.9795 22.8804 81.0875 22.789 81.2037 22.6892C81.32 22.5895 81.428 22.4898 81.5443 22.39C81.6606 22.2903 81.7686 22.1906 81.8849 22.0908C82.0012 21.9911 82.1091 21.8914 82.2254 21.7916C82.3334 21.6919 82.4414 21.6005 82.5577 21.5007C82.674 21.401 82.7819 21.3013 82.8982 21.2015C83.0145 21.1018 83.1225 21.0021 83.2388 20.9023C83.3468 20.8026 83.4548 20.7112 83.5711 20.6115C83.6873 20.5117 83.7953 20.412 83.9116 20.3123C84.0279 20.2125 84.1359 20.1128 84.2522 20.0131C84.3602 19.9133 84.4681 19.8219 84.5844 19.7222C84.7007 19.6224 84.8087 19.5227 84.925 19.423C85.0413 19.3232 85.1493 19.2235 85.2655 19.1238C85.3818 19.024 85.4898 18.9243 85.6061 18.8246C85.7141 18.7248 85.8221 18.6334 85.9384 18.5337C86.0547 18.434 86.1626 18.3342 86.2789 18.2345C86.3952 18.1348 86.5032 18.035 86.6195 17.9353C86.7275 17.8356 86.8355 17.7441 86.9517 17.6444C87.068 17.5447 87.176 17.4449 87.2923 17.3452C87.4086 17.2455 87.5166 17.1457 87.6329 17.046C87.7408 16.9463 87.8571 16.8549 87.9651 16.7551C88.0814 16.6554 88.1894 16.5557 88.3057 16.4559C88.422 16.3562 88.5299 16.2565 88.6462 16.1567C88.7625 16.057 88.8705 15.9573 88.9868 15.8575C89.0948 15.7578 89.2111 15.6664 89.3191 15.5666C89.4353 15.4669 89.5516 15.3755 89.6596 15.2674C89.643 15.2425 89.6347 15.2176 89.6264 15.2009C89.2775 14.6275 88.9868 14.0208 88.7293 13.3974C88.3721 12.5497 88.0482 11.6854 87.7907 10.7961C87.6162 10.1728 87.4667 9.54942 87.3671 8.90947C87.2591 8.19472 87.2092 7.47165 87.2508 6.74859C87.3006 5.97566 87.4501 5.22766 87.7658 4.51291C88.0067 3.97269 88.3306 3.48234 88.7625 3.06678C88.9785 2.85901 89.2194 2.66785 89.4769 2.51825C89.5184 2.49332 89.5682 2.46839 89.6181 2.44345C89.6264 2.46839 89.643 2.48501 89.643 2.50163C89.7344 3.14989 89.9005 3.78154 90.0832 4.41318C90.4155 5.55179 90.8308 6.65717 91.2793 7.75423C91.8525 9.13387 92.4921 10.4803 93.1732 11.8017C93.2064 11.8599 93.2396 11.9264 93.2729 11.9846C93.2812 12.0012 93.2978 12.0178 93.3144 12.0427C93.3559 12.0012 93.3975 11.9679 93.439 11.9264C94.9258 10.5135 96.313 9.02582 97.6171 7.44672C99.0458 5.71802 100.358 3.91451 101.546 2.01128C101.911 1.42119 102.269 0.822794 102.593 0.207774C102.609 0.166219 102.626 0.141287 102.642 0.0997314Z" fill="#FFD800"/><path d="M33.517 19.1071C32.3707 19.2734 31.241 19.4396 30.1031 19.6058C30.0782 19.6058 30.0615 19.6058 30.0366 19.6058C30.0283 19.5892 30.0283 19.5809 30.0283 19.5726C31.349 15.1261 32.7528 10.7047 34.1981 6.29978C34.2064 6.26654 34.223 6.23329 34.2396 6.20005C34.2646 6.20005 34.2895 6.19174 34.3144 6.19174C35.577 6.18343 36.8395 6.1668 38.1021 6.15849C38.1187 6.15849 38.127 6.16681 38.1519 6.16681C38.1935 6.42445 38.2101 6.68209 38.2433 6.93973C38.2682 7.19738 38.3014 7.44671 38.3264 7.70435C38.3513 7.962 38.3845 8.21964 38.4094 8.47728C38.4343 8.73493 38.4676 8.99257 38.4925 9.25021C38.5174 9.50786 38.5506 9.75719 38.5756 10.0148C38.6088 10.2725 38.6337 10.5301 38.6669 10.7878C38.6918 11.0454 38.7251 11.2947 38.75 11.5524C38.7832 11.81 38.8081 12.0677 38.8331 12.3336C38.8912 12.317 38.8995 12.2671 38.9161 12.2339C39.1653 11.7602 39.4145 11.2864 39.6637 10.8127C40.4777 9.27515 41.3167 7.75422 42.1639 6.2416C42.1888 6.20005 42.2137 6.1668 42.2304 6.13356C42.3716 6.11694 46.3835 6.11694 46.533 6.13356C46.533 6.15849 46.5413 6.19174 46.5413 6.22498C46.533 6.42445 46.5164 6.6156 46.5081 6.81507C46.4832 7.16413 46.4583 7.50489 46.4334 7.85395C46.4084 8.22795 46.3835 8.60195 46.3586 8.97595C46.3337 9.29177 46.3171 9.6159 46.2922 9.93172C46.2672 10.3057 46.2423 10.6797 46.2174 11.0537C46.1925 11.3695 46.1759 11.6937 46.1593 12.0095C46.1343 12.3835 46.1094 12.7575 46.0845 13.1315C46.0596 13.4473 46.043 13.7714 46.0181 14.0873C45.9931 14.4613 45.9682 14.8353 45.9433 15.2093C45.9184 15.5251 45.9018 15.8492 45.8768 16.165C45.8519 16.539 45.827 16.913 45.8021 17.287C45.7938 17.3784 45.7938 17.4616 45.7855 17.553C45.7855 17.5945 45.7772 17.6444 45.7689 17.6943C44.4648 17.8272 43.1607 17.9602 41.8649 18.0932C41.84 18.0932 41.815 18.0932 41.7735 18.0932C41.7735 17.927 41.7901 17.7774 41.8067 17.6195C41.8233 17.4699 41.8316 17.312 41.84 17.154C41.8566 16.9961 41.8649 16.8465 41.8815 16.6886C41.8981 16.5307 41.9064 16.3728 41.923 16.2149C41.9396 16.057 41.9479 15.9074 41.9646 15.7495C41.9812 15.5999 41.9895 15.442 42.0061 15.2841C42.0227 15.1261 42.031 14.9765 42.0476 14.8186C42.0642 14.6607 42.0725 14.5111 42.0891 14.3532C42.1058 14.2036 42.1141 14.0457 42.1224 13.8878C42.139 13.7299 42.1556 13.572 42.1639 13.4058C42.1805 13.2478 42.1888 13.0982 42.1971 12.9403C42.2137 12.7824 42.2304 12.6328 42.2387 12.4749C42.247 12.3253 42.2719 12.1674 42.2719 12.0012C42.222 12.0178 42.2137 12.0594 42.1971 12.0843C41.9812 12.4417 41.7735 12.799 41.5575 13.1564C40.5608 14.8519 39.5889 16.5723 38.642 18.301C38.5506 18.4672 38.5839 18.4423 38.3928 18.4672C37.9027 18.5254 37.4127 18.5919 36.9226 18.65C36.8063 18.6667 36.69 18.675 36.5654 18.6916C36.5488 18.6916 36.5322 18.6916 36.5073 18.6916C36.4574 18.4838 36.4408 18.276 36.4076 18.0683C36.3744 17.8605 36.3495 17.6527 36.3162 17.4449C36.283 17.2288 36.2498 17.0211 36.2249 16.805C36.1916 16.5972 36.1667 16.3894 36.1335 16.1816C36.1003 15.9739 36.0753 15.7661 36.0421 15.5583C36.0089 15.3505 35.984 15.1428 35.9507 14.935C35.9175 14.7272 35.8926 14.5194 35.8594 14.3117C35.8262 14.0956 35.8012 13.8878 35.768 13.6717C35.7431 13.4639 35.7099 13.2561 35.6849 13.0484C35.6517 12.8406 35.6268 12.6328 35.5936 12.425C35.552 12.425 35.552 12.45 35.5437 12.4666C35.4358 12.8074 35.3278 13.1564 35.2198 13.4972C34.655 15.309 34.0984 17.1291 33.5419 18.9492C33.5502 19.0074 33.5336 19.049 33.517 19.1071Z" fill="#FFD800"/><path d="M18.0503 21.5922C18.8892 16.4476 19.7199 11.3197 20.5588 6.19177C20.6087 6.18345 20.6419 6.18345 20.6834 6.17514C20.8745 6.16683 21.0655 6.15852 21.2565 6.15021C22.5357 6.10865 23.8149 6.0671 25.0941 6.07541C25.4263 6.07541 25.7586 6.08372 26.0908 6.10865C26.7886 6.17514 27.478 6.29981 28.1259 6.56576C29.1974 6.99794 29.9533 7.76256 30.4185 8.80975C30.6178 9.25855 30.7341 9.72397 30.8005 10.206C30.8753 10.7379 30.8753 11.2615 30.8421 11.7934C30.7922 12.5082 30.651 13.2146 30.4517 13.9044C29.8702 15.8908 28.7821 17.5613 27.2205 18.9243C26.5394 19.5144 25.7835 19.9881 24.9363 20.3123C24.496 20.4785 24.0392 20.6032 23.574 20.678C22.9677 20.7777 22.3696 20.8774 21.7632 20.9689C21.2649 21.052 20.7582 21.1185 20.2598 21.2016C19.5704 21.3096 18.8892 21.4177 18.2081 21.5506C18.1084 21.5922 18.0669 21.5922 18.0503 21.5922ZM22.2201 17.312C22.2616 17.3037 22.3031 17.2954 22.3364 17.287C22.5523 17.2372 23.0673 17.1624 24.1721 16.7801C24.8532 16.4892 25.1439 16.2399 25.4596 15.8908C25.8583 15.4503 26.149 14.9433 26.3566 14.3948C26.5809 13.7964 26.7138 13.1648 26.772 12.5248C26.8052 12.1674 26.7969 11.81 26.7387 11.461C26.6889 11.195 26.6058 10.9374 26.4646 10.7047C26.2404 10.339 25.9247 10.098 25.5177 9.98161C25.335 9.93175 25.1522 9.90682 24.9612 9.91513C24.7701 9.92344 24.5874 9.93175 24.3963 9.94006C24.0807 9.95668 23.7568 9.98162 23.4411 9.99824C23.4079 9.99824 23.383 10.0065 23.3414 10.0149C23.3331 10.0564 23.3165 10.098 23.3082 10.1395C22.9095 12.5082 22.544 14.8851 22.2035 17.2704C22.2118 17.2787 22.2201 17.287 22.2201 17.312Z" fill="#FFD800"/><path d="M60.9028 12.3337C61.0357 12.5248 61.1769 12.6911 61.3098 12.8573C61.4427 13.0235 61.5673 13.1897 61.7002 13.3559C61.8331 13.5222 61.966 13.6884 62.0989 13.8546C62.2318 14.0208 62.3647 14.187 62.506 14.3533C62.6389 14.5195 62.7718 14.6774 62.9047 14.8436C63.0376 15.0098 63.1788 15.1761 63.3117 15.3423C63.4446 15.5002 63.5775 15.6664 63.7187 15.8243C63.8516 15.9905 63.9928 16.1485 64.134 16.323C64.0675 16.3479 64.0094 16.3396 63.9596 16.3479C63.7104 16.3562 63.4695 16.3645 63.2203 16.3812C62.8216 16.4061 62.4229 16.431 62.0325 16.456C61.7002 16.4809 61.3763 16.4975 61.044 16.5225C60.853 16.5391 60.6619 16.5474 60.4709 16.5557C60.4377 16.5557 60.4044 16.5557 60.3712 16.5557C60.3546 16.5391 60.338 16.5141 60.3297 16.4975C60.0805 16.0404 59.7981 15.6082 59.5074 15.1844C59.2748 14.8519 59.0422 14.5195 58.8179 14.1787C58.5687 13.8047 58.3279 13.4224 58.1202 13.0152C58.1119 12.9986 58.0953 12.9736 58.087 12.957C57.9541 12.9321 57.2397 12.9155 57.0736 12.9404C56.7746 14.2369 56.4672 15.5418 56.1682 16.8549C55.8941 16.8965 55.62 16.9048 55.3459 16.9297C55.0801 16.9546 54.806 16.9713 54.5402 16.9879C54.2661 17.0045 53.9919 17.0294 53.7178 17.0544C53.452 17.0793 53.1862 17.0959 52.9038 17.1125C52.9038 17.0793 52.9038 17.071 52.9038 17.0461C52.9952 16.5557 55.4871 6.37464 55.5702 6.18348C55.6034 6.18348 55.6366 6.17517 55.6698 6.17517C56.4672 6.18348 57.273 6.19179 58.0704 6.20842C59.0007 6.22504 59.9393 6.24166 60.8696 6.24997C61.8414 6.26659 62.7385 6.53255 63.5858 7.01459C63.8516 7.16419 64.0925 7.34703 64.3001 7.56312C64.5244 7.79583 64.7071 8.06179 64.8068 8.36929C64.8816 8.59369 64.9065 8.83471 64.8899 9.07574C64.8483 9.53285 64.7154 9.9484 64.4579 10.3307C64.2669 10.6216 64.026 10.8626 63.7602 11.087C63.2951 11.4693 62.7718 11.7519 62.2152 11.9597C61.8331 12.101 61.4427 12.209 61.044 12.2921C60.9942 12.3087 60.961 12.3171 60.9028 12.3337ZM57.2813 11.0455C57.3145 11.0538 57.3394 11.0621 57.3726 11.0621C57.4474 11.0704 57.5221 11.0704 57.5886 11.0787C58.2199 11.1119 58.8429 11.087 59.4575 10.954C59.7649 10.8876 60.0639 10.7878 60.338 10.6299C60.4958 10.5385 60.6453 10.4304 60.7616 10.2892C60.9111 10.1229 61.0274 9.92347 61.069 9.69907C61.1437 9.33338 61.0357 9.05911 60.7118 8.87627C60.6287 8.8264 60.5374 8.79316 60.446 8.75991C60.1885 8.66849 59.9227 8.62694 59.6486 8.62694C59.0588 8.61863 58.4608 8.61863 57.8627 8.61863C57.8378 8.61863 57.8212 8.62694 57.7963 8.62694C57.6218 9.41649 57.4391 10.206 57.2646 10.9956C57.273 11.0122 57.2813 11.0288 57.2813 11.0455Z" fill="#FFD800"/><path d="M68.553 7.77916C68.2955 7.59631 68.0297 7.41347 67.7639 7.23894C67.498 7.05609 67.2406 6.87325 66.9747 6.69041C66.7089 6.50756 66.4514 6.33303 66.1939 6.15019C66.2023 6.13356 66.2023 6.13357 66.2023 6.12525C66.2023 6.12525 66.2106 6.11694 66.2189 6.11694C66.2521 6.11694 66.2853 6.11694 66.3185 6.11694C69.2341 6.11694 72.1496 6.11694 75.0568 6.11694C75.0984 6.15019 75.0901 6.19174 75.0817 6.22499C75.0734 6.51588 75.0568 6.80676 75.0485 7.10596C75.0402 7.38854 75.0236 7.67111 75.007 7.95369C74.9904 8.2612 74.9821 8.57702 74.9655 8.88453C74.9405 9.40813 74.9156 9.92342 74.899 10.447C74.8907 10.6714 74.8824 10.9041 74.8658 11.1285C74.8409 11.6604 74.8243 12.2006 74.7993 12.7326C74.7661 13.4556 74.7329 14.187 74.6997 14.9101C74.683 15.2425 74.6747 15.5749 74.6581 15.9074C74.6581 15.9656 74.6498 16.0237 74.6498 16.0902C74.6 16.1152 74.5418 16.1069 74.5003 16.1069C73.9853 16.1069 73.4786 16.1069 72.9636 16.1069C72.5234 16.1069 72.0832 16.1069 71.6512 16.1069C71.6097 16.1069 71.5599 16.1069 71.51 16.0985C71.51 15.8908 71.5432 15.6913 71.5599 15.4918C71.5765 15.2924 71.6014 15.0929 71.618 14.8934C71.6346 14.694 71.6512 14.4945 71.6761 14.295C71.6595 14.2867 71.6429 14.2784 71.6346 14.2784C70.7458 14.295 69.8654 14.3034 68.9683 14.32C68.9434 14.3698 68.9184 14.4114 68.8935 14.4529C68.6277 14.9849 68.3619 15.5168 68.0961 16.0487C68.0712 16.0985 68.0546 16.1401 68.0297 16.1817C66.8917 16.2066 65.7537 16.2315 64.6241 16.2648C64.6157 16.2648 64.5991 16.2565 64.5908 16.2565C64.5908 16.2481 64.5825 16.2481 64.5825 16.2398C64.5825 16.2315 64.5825 16.2315 64.5825 16.2232V16.2149C64.5825 16.2066 64.5825 16.2066 64.5908 16.1983C64.5908 16.1983 64.5908 16.19 64.5991 16.1817C64.5991 16.1733 64.6074 16.165 64.6074 16.1567C64.6074 16.1484 64.6074 16.1484 64.6157 16.1484L64.6241 16.1401C64.6324 16.1235 64.6324 16.1152 64.6407 16.1069C65.9365 13.3725 67.2322 10.6382 68.5197 7.90382C68.5197 7.89551 68.528 7.8872 68.528 7.87889L68.5363 7.87058L68.5447 7.86227C68.5447 7.85396 68.5446 7.85396 68.553 7.84565C68.553 7.83733 68.553 7.83734 68.5613 7.82902C68.5613 7.82071 68.5613 7.82071 68.5613 7.8124C68.553 7.8124 68.553 7.80409 68.553 7.77916ZM71.6595 8.21133C71.6014 8.25289 71.5765 8.30275 71.5599 8.34431C71.1279 9.06737 70.6877 9.78213 70.2558 10.5052C70.0149 10.8958 69.774 11.2947 69.5414 11.6937C69.5248 11.7269 69.4833 11.7602 69.4999 11.81C69.5248 11.81 69.5497 11.81 69.5663 11.81C69.7325 11.7851 69.8986 11.7685 70.073 11.7435C70.2641 11.7186 70.4634 11.6937 70.6545 11.6687C70.6794 11.6687 70.7043 11.6687 70.7458 11.6771C70.7043 11.8682 70.6711 12.051 70.6378 12.2339C70.6046 12.4167 70.5631 12.5996 70.5299 12.7824C70.4883 12.9736 70.4468 13.1564 70.4136 13.3476C70.3804 13.5304 70.3305 13.705 70.3056 13.9044C70.4053 13.7964 71.8755 11.4942 72.3739 10.6797C72.3905 10.6548 72.3988 10.6299 72.4154 10.6049C72.3905 10.5966 72.3739 10.5966 72.349 10.5966C72.2244 10.6049 72.0998 10.6049 71.9835 10.6132C71.7758 10.6215 71.5599 10.6382 71.3522 10.6548C71.319 10.6548 71.2857 10.6465 71.2525 10.6465C71.3024 10.3722 71.3522 10.1063 71.3937 9.8403C71.4436 9.57435 71.4851 9.30008 71.5349 9.03413C71.5599 8.76818 71.618 8.50222 71.6595 8.21133Z" fill="#FFD800"/><path d="M80.9877 13.5055C81.6439 13.5055 82.2669 13.5138 82.8982 13.5138C83.5294 13.5221 84.169 13.5221 84.8003 13.5304C85.9549 13.5387 86.553 13.5554 86.6859 13.5803L86.6942 13.5886C86.6942 13.5886 86.6942 13.5969 86.6942 13.6052C86.4034 14.3781 86.1626 15.1677 85.8635 15.9489C85.8303 15.9573 85.8054 15.9573 85.7805 15.9573C83.762 15.9157 81.7436 15.9157 79.7168 15.9406C78.7616 15.9489 77.8064 15.9739 76.8511 15.9905C76.6103 15.9905 76.3777 15.9988 76.1368 15.9988C76.1036 15.9988 76.062 15.9988 76.0205 15.9905C76.0205 15.9656 76.0205 15.9489 76.0288 15.9323C77.0339 12.6661 78.0473 9.3915 79.0523 6.12525C79.1105 6.10032 79.1603 6.10863 79.2101 6.10863C79.6836 6.10863 80.1488 6.10863 80.6222 6.10863C81.5027 6.10863 82.3749 6.10863 83.2553 6.10863C83.3135 6.10863 83.3633 6.10032 83.4298 6.12525C83.3467 6.39952 83.247 6.67378 83.1557 6.94805C83.0643 7.22231 82.9729 7.49658 82.8816 7.76253C82.7902 8.0368 82.6988 8.31106 82.6074 8.58533C82.5161 8.8596 82.4247 9.13386 82.3333 9.39981C82.242 9.66577 82.1506 9.94004 82.0675 10.206C81.9762 10.4803 81.8848 10.7545 81.7934 11.0288C81.7021 11.3031 81.6107 11.5773 81.5193 11.8433C81.4279 12.1175 81.3366 12.3918 81.2452 12.6661C81.1788 12.9486 81.0791 13.2146 80.9877 13.5055Z" fill="#FFD800"/><path d="M49.44 6.13367C50.8604 6.14198 52.2725 6.1586 53.6763 6.17522C53.6929 6.17522 53.7012 6.18353 53.7178 6.19184C53.7178 6.20847 53.7178 6.22509 53.7178 6.24171C52.829 9.89027 51.9568 13.5471 51.093 17.204C51.093 17.2206 51.0764 17.2373 51.0681 17.2539C51.0514 17.2622 51.0265 17.2622 51.0099 17.2622C49.6311 17.3785 48.2522 17.4866 46.865 17.6029C46.8484 17.6029 46.8401 17.6029 46.8235 17.5946C46.8069 17.5614 46.8235 17.5198 46.8318 17.4866C47.0146 16.6638 47.1973 15.841 47.3883 15.0265C47.6375 13.9211 47.8867 12.8158 48.1442 11.7104C48.4266 10.497 48.7008 9.27525 48.9832 8.06184C49.1244 7.45513 49.2656 6.84842 49.4068 6.24171C49.4068 6.21678 49.4234 6.18353 49.44 6.13367Z" fill="#FFD800"/><path d="M46.865 2.21075L47.8452 2.50994C47.7787 2.78421 47.679 3.01692 47.5295 3.19976C47.3883 3.38261 47.2139 3.52389 46.9979 3.61532C46.7902 3.70674 46.5161 3.75661 46.1922 3.75661C45.8018 3.75661 45.4778 3.69843 45.2286 3.58207C44.9795 3.46572 44.7635 3.26625 44.5808 2.97536C44.398 2.68448 44.3066 2.31879 44.3066 1.86999C44.3066 1.27159 44.4645 0.806174 44.7884 0.482042C45.1041 0.157911 45.5609 0 46.1423 0C46.5992 0 46.9564 0.0914221 47.2222 0.274266C47.4797 0.457109 47.679 0.739685 47.8036 1.12199L46.8152 1.34639C46.7819 1.23835 46.7404 1.15524 46.7072 1.10537C46.6407 1.02226 46.566 0.955774 46.4746 0.905908C46.3832 0.856041 46.2836 0.839419 46.1673 0.839419C45.9098 0.839419 45.7187 0.939151 45.5858 1.14693C45.4861 1.29653 45.4363 1.53755 45.4363 1.86168C45.4363 2.26061 45.4945 2.54319 45.619 2.69279C45.7436 2.84239 45.9098 2.91719 46.134 2.91719C46.35 2.91719 46.5078 2.85901 46.6241 2.73434C46.7321 2.61799 46.8152 2.44346 46.865 2.21075Z" fill="white"/><path d="M50.6197 3.09995H49.3488L49.1744 3.69835H48.0281L49.3903 0.0664062H50.6114L51.9736 3.69835H50.8024L50.6197 3.09995ZM50.3871 2.3104L49.9884 1.00556L49.5897 2.3104H50.3871Z" fill="white"/><path d="M52.1398 2.4933L53.203 2.42681C53.2279 2.60135 53.2694 2.73432 53.3442 2.82574C53.4605 2.97534 53.6266 3.05014 53.8426 3.05014C54.0004 3.05014 54.125 3.00859 54.2164 2.93379C54.2994 2.85899 54.3493 2.76757 54.3493 2.67614C54.3493 2.58472 54.3077 2.50161 54.2247 2.42681C54.1416 2.35201 53.9506 2.28552 53.6515 2.21904C53.1614 2.11099 52.8126 1.96139 52.5966 1.77855C52.389 1.59571 52.281 1.36299 52.281 1.08042C52.281 0.897574 52.3391 0.714731 52.4471 0.54851C52.5551 0.382288 52.7212 0.249311 52.9372 0.15789C53.1531 0.0664677 53.4522 0.0166016 53.826 0.0166016C54.2911 0.0166016 54.64 0.0997115 54.8892 0.274244C55.1301 0.448777 55.2796 0.723043 55.3211 1.09704L54.2662 1.15522C54.2413 0.988997 54.1831 0.872642 54.0918 0.797842C54.0004 0.723042 53.8758 0.689798 53.718 0.689798C53.5851 0.689798 53.4854 0.714731 53.4273 0.772908C53.3608 0.831086 53.3276 0.897575 53.3276 0.972375C53.3276 1.03055 53.3525 1.08042 53.4106 1.13028C53.4605 1.18015 53.5851 1.22171 53.7844 1.26326C54.2745 1.37131 54.6234 1.47935 54.8393 1.58739C55.0553 1.69544 55.2048 1.82842 55.3045 1.98633C55.4042 2.14424 55.4457 2.32708 55.4457 2.52655C55.4457 2.75926 55.3792 2.97534 55.2547 3.1665C55.1301 3.36596 54.9473 3.51556 54.7147 3.61529C54.4822 3.71503 54.1914 3.76489 53.8426 3.76489C53.2279 3.76489 52.796 3.64854 52.5634 3.40752C52.2976 3.1665 52.1647 2.85899 52.1398 2.4933Z" fill="white"/><path d="M56.0354 0.0664062H57.1568V3.69835H56.0354V0.0664062Z" fill="white"/><path d="M57.9708 0.0664062H59.0174L60.3797 2.07769V0.0664062H61.4346V3.69835H60.3797L59.0174 1.70369V3.69835H57.9625V0.0664062H57.9708Z" fill="white"/><path d="M62.041 1.8866C62.041 1.29652 62.2071 0.831097 62.5394 0.506965C62.8717 0.174522 63.3285 0.00830078 63.9183 0.00830078C64.5246 0.00830078 64.9898 0.174522 65.3137 0.498654C65.6377 0.822785 65.8038 1.2799 65.8038 1.86167C65.8038 2.28553 65.729 2.6346 65.5878 2.90886C65.4466 3.18313 65.239 3.39091 64.9732 3.54051C64.7074 3.69011 64.3668 3.76491 63.9681 3.76491C63.5611 3.76491 63.2205 3.69842 62.9547 3.56544C62.6889 3.43246 62.4729 3.22469 62.3068 2.95042C62.1241 2.65953 62.041 2.31047 62.041 1.8866ZM63.1624 1.8866C63.1624 2.25229 63.2288 2.51825 63.37 2.67616C63.5029 2.83407 63.694 2.91718 63.9266 2.91718C64.1674 2.91718 64.3502 2.84238 64.4831 2.68447C64.616 2.52656 64.6824 2.24398 64.6824 1.83674C64.6824 1.49598 64.616 1.24665 64.4748 1.08874C64.3336 0.93083 64.1508 0.85603 63.9183 0.85603C63.694 0.85603 63.5112 0.939141 63.37 1.09705C63.2288 1.25496 63.1624 1.52092 63.1624 1.8866Z" fill="white"/></svg>